<svg width="72" height="45" viewBox="0 0 72 45" fill="none" xmlns="http://www.w3.org/2000/svg">
<path fill-rule="evenodd" clip-rule="evenodd" d="M0 0H72V3.46294H0V0ZM0 6.92578H72V10.3887H0V6.92578ZM0 13.8428H72V17.3144H0V13.8428ZM0 20.7685H72V24.2315H0V20.7685ZM0 27.6943H72V31.1572H0V27.6943ZM0 34.6113H72V38.0742H0V34.6113ZM0 41.5371H72V45H0V41.5371Z" fill="#BD3D44"/>
<path fill-rule="evenodd" clip-rule="evenodd" d="M0 3.46289H72V6.92573H0V3.46289ZM0 10.3886H72V13.8427H0V10.3886ZM0 17.3056H72V20.7685H0V17.3056ZM0 24.2314H72V27.6943H0V24.2314ZM0 31.1572H72V34.62H0V31.1572ZM0 38.0742H72V41.5371H0V38.0742Z" fill="white"/>
<path fill-rule="evenodd" clip-rule="evenodd" d="M0 0H28.7985V24.2315H0V0Z" fill="#192F5D"/>
<path fill-rule="evenodd" clip-rule="evenodd" d="M2.39824 1.03711L2.66469 1.99495H3.50848L2.82748 2.58389L3.08659 3.55064L2.39824 2.95298L1.71732 3.54183L1.97635 2.58389L1.28809 1.99495H2.14664L2.39824 1.03711ZM7.20172 1.03711L7.46074 1.99495H8.31188L7.62353 2.58389L7.88264 3.55064L7.20172 2.95298L6.51338 3.54183L6.7724 2.58389L6.09148 1.99495H6.93527L7.20172 1.03711ZM11.9978 1.03711L12.2642 1.99505H13.1006L12.4197 2.58398L12.6786 3.55073L11.9903 2.95308L11.3094 3.54192L11.5685 2.58398L10.8801 1.99505H11.7313L11.9978 1.03711ZM16.8012 1.03711L17.0602 1.99505H17.9114L17.2231 2.58398L17.4895 3.55073L16.8012 2.95308L16.1129 3.54192L16.3793 2.58398L15.691 1.99505H16.5348L16.8012 1.03711ZM21.5973 1.03711L21.8637 1.99505H22.7075L22.0265 2.58398L22.2856 3.55073L21.5972 2.95308L20.9163 3.54192L21.1754 2.58398L20.4945 1.99505H21.3382L21.5973 1.03711ZM26.4007 1.03711L26.6597 1.99505H27.5109L26.8226 2.58398L27.089 3.55073L26.4007 2.95308L25.7124 3.54192L25.9788 2.58398L25.2905 1.99505H26.1417L26.4007 1.03711ZM4.80369 3.4627L5.06272 4.42083H5.91385L5.22551 5.00958L5.47719 5.9677L4.81103 5.37877L4.12277 5.96761L4.36695 5.00967L3.70088 4.42073H4.54467L4.80369 3.4627ZM9.59974 3.4627L9.86619 4.42083H10.7099L10.0216 5.00958L10.2881 5.9677L9.59967 5.37877L8.9114 5.96761L9.17785 5.00967L8.48951 4.42073H9.34064L9.59974 3.4627ZM14.4032 3.4627L14.6622 4.42083H15.5134L14.825 5.00958L15.0841 5.9677L14.4031 5.37877L13.7149 5.96761L13.9739 5.00977L13.293 4.42083H14.1368L14.4032 3.4627ZM19.1993 3.4627L19.4657 4.42083H20.3094L19.6211 5.00958L19.8875 5.9677L19.1992 5.37877L18.5183 5.96761L18.7774 5.00967L18.089 4.42073H18.9476L19.1993 3.4627ZM24.0027 3.4627L24.2617 4.42083H25.1129L24.4246 5.00958L24.6836 5.9677L24.0027 5.37877L23.3143 5.96761L23.5734 5.00967L22.8925 4.42073H23.7362L24.0027 3.4627ZM2.39824 5.87995L2.66469 6.85552H3.50848L2.82748 7.44436L3.08659 8.40239L2.39824 7.80473L1.71732 8.40239L1.97635 7.43555L1.28809 6.8468H2.14664L2.39824 5.87995ZM7.20172 5.87995L7.46074 6.84652H8.31188L7.62353 7.43536L7.88264 8.39348L7.20172 7.79573L6.51338 8.39339L6.7724 7.42664L6.09148 6.8378H6.93527L7.20172 5.87995ZM11.9978 5.87995L12.2642 6.8467H13.1006L12.4197 7.43555L12.6786 8.39367L11.9903 7.79592L11.3094 8.39358L11.5685 7.42683L10.8801 6.83798H11.7313L11.9978 5.87995ZM16.8012 5.87995L17.0602 6.8467H17.9114L17.2231 7.43555L17.4895 8.39367L16.8012 7.79592L16.1129 8.39358L16.3793 7.42683L15.691 6.83798H16.5348L16.8012 5.87995ZM21.5973 5.87995L21.8637 6.8467H22.7075L22.0265 7.43545L22.2856 8.39358L21.5972 7.79583L20.9163 8.39348L21.1754 7.42673L20.4945 6.83789H21.3382L21.5973 5.87995ZM26.4007 5.87995L26.6597 6.8467H27.5109L26.8226 7.43555L27.089 8.39367L26.4007 7.79592L25.7124 8.39358L25.9788 7.42683L25.2905 6.83798H26.1417L26.4007 5.87995ZM4.80369 8.30564L5.06272 9.26367H5.91385L5.22551 9.85242L5.48461 10.8193L4.80369 10.2216L4.11535 10.8105L4.37438 9.85252L3.69345 9.26367H4.53732L4.80369 8.30564ZM9.59974 8.30564L9.86619 9.26367H10.7099L10.0216 9.85242L10.2881 10.8193L9.59967 10.2216L8.9114 10.8105L9.17785 9.85252L8.48951 9.26367H9.34064L9.59974 8.30564ZM14.4032 8.30564L14.6622 9.26367H15.5134L14.825 9.85242L15.0841 10.8193L14.4031 10.2216L13.7149 10.8105L13.9739 9.85252L13.293 9.26367H14.1368L14.4032 8.30564ZM19.1993 8.30564L19.4657 9.26367H20.3094L19.6285 9.85242L19.8875 10.8193L19.1992 10.2216L18.5183 10.8105L18.7774 9.85252L18.089 9.26367H18.9476L19.1993 8.30564ZM24.0027 8.30564L24.2617 9.26367H25.1129L24.4246 9.85242L24.6836 10.8193L24.0027 10.2216L23.3143 10.8105L23.5734 9.85252L22.8925 9.26367H23.7362L24.0027 8.30564ZM2.39824 10.7314L2.66469 11.6895H3.50848L2.82748 12.2782L3.08659 13.245L2.39824 12.6474L1.71732 13.2362L1.97635 12.2783L1.28809 11.6895H2.14664L2.39824 10.7314ZM7.20172 10.7314L7.46074 11.6895H8.31188L7.62353 12.2782L7.88264 13.2363L7.20172 12.6474L6.51338 13.2362L6.7724 12.2783L6.09148 11.6895H6.93527L7.20172 10.7314ZM11.9978 10.7314L12.2642 11.6895H13.1006L12.4197 12.2782L12.6786 13.245L11.9903 12.6474L11.3094 13.2362L11.5685 12.2783L10.8801 11.6895H11.7313L11.9978 10.7314ZM16.8012 10.7314L17.0602 11.6895H17.9114L17.2231 12.2782L17.4895 13.245L16.8012 12.6474L16.1129 13.2362L16.3793 12.2783L15.691 11.6895H16.5348L16.8012 10.7314ZM21.5973 10.7314L21.8637 11.6895H22.7075L22.0265 12.2782L22.2856 13.245L21.5972 12.6474L20.9163 13.2362L21.1754 12.2783L20.4945 11.6895H21.3382L21.5973 10.7314ZM26.4007 10.7314L26.6597 11.6895H27.5109L26.8226 12.2782L27.089 13.245L26.4007 12.6474L25.7124 13.2362L25.9788 12.2783L25.2905 11.6895H26.1417L26.4007 10.7314ZM4.80369 13.1572L5.06272 14.1152H5.91385L5.22551 14.704L5.48461 15.6621L4.80369 15.0645L4.11535 15.6621L4.37438 14.6953L3.69345 14.1064H4.53732L4.80369 13.1572ZM9.59974 13.1572L9.86619 14.1152H10.7099L10.0216 14.704L10.2881 15.6621L9.59967 15.0645L8.9114 15.6621L9.17785 14.6953L8.48951 14.1064H9.34064L9.59974 13.1572ZM14.4032 13.1572L14.6622 14.1152H15.5134L14.825 14.704L15.0841 15.6621L14.4031 15.0645L13.7149 15.6621L13.9739 14.6953L13.293 14.1064H14.1368L14.4032 13.1572ZM19.1993 13.1572L19.4657 14.1152H20.3094L19.6285 14.704L19.8875 15.6621L19.1992 15.0645L18.5183 15.6621L18.7774 14.6953L18.089 14.1064H18.9476L19.1993 13.1572ZM24.0027 13.1572L24.2617 14.1152H25.1129L24.4246 14.704L24.6836 15.6621L24.0027 15.0645L23.3143 15.6621L23.5734 14.6953L22.8925 14.1064H23.7362L24.0027 13.1572ZM2.39824 15.5742L2.66469 16.541H3.50848L2.82748 17.1298L3.08659 18.0791L2.39824 17.4902L1.71732 18.079L1.97635 17.121L1.28809 16.5322H2.14664L2.39824 15.5742ZM7.20172 15.5742L7.46074 16.541H8.31188L7.62353 17.1298L7.89006 18.0791L7.20164 17.4902L6.51338 18.079L6.77982 17.121L6.09148 16.5322H6.93527L7.20172 15.5742ZM11.9978 15.5742L12.2642 16.541H13.1006L12.4197 17.1298L12.6786 18.0791L11.9903 17.4902L11.3094 18.079L11.5685 17.121L10.8801 16.5322H11.7313L11.9978 15.5742ZM16.8012 15.5742L17.0602 16.541H17.9114L17.2231 17.1298L17.4895 18.0791L16.8012 17.4902L16.1129 18.079L16.3793 17.121L15.691 16.5322H16.5348L16.8012 15.5742ZM21.5973 15.5742L21.8637 16.541H22.7075L22.0265 17.1298L22.2856 18.0791L21.5972 17.4902L20.9163 18.079L21.1754 17.121L20.4945 16.5322H21.3382L21.5973 15.5742ZM26.4007 15.5742L26.6597 16.541H27.5109L26.8226 17.1298L27.089 18.0791L26.4007 17.4902L25.7124 18.079L25.9788 17.121L25.2905 16.5322H26.1417L26.4007 15.5742ZM4.80369 18L5.06272 18.958H5.91385L5.22551 19.5468L5.48461 20.5137L4.80369 19.916L4.11535 20.5048L4.37438 19.5468L3.69345 18.958H4.53732L4.80369 18ZM9.59974 18L9.86619 18.958H10.7099L10.0216 19.5468L10.2881 20.5137L9.59967 19.916L8.9114 20.5048L9.17785 19.5468L8.48951 18.958H9.34064L9.59974 18ZM14.4032 18L14.6622 18.958H15.5134L14.825 19.5468L15.0841 20.5137L14.4031 19.916L13.7149 20.5048L13.9739 19.5468L13.293 18.958H14.1368L14.4032 18ZM19.1993 18L19.4657 18.958H20.3094L19.6285 19.5468L19.8875 20.5137L19.1992 19.916L18.5183 20.5048L18.7774 19.5468L18.089 18.958H18.9476L19.1993 18ZM24.0027 18L24.2617 18.958H25.1129L24.4246 19.5468L24.6836 20.5137L24.0027 19.916L23.3143 20.5048L23.5734 19.5468L22.8925 18.958H23.7362L24.0027 18ZM2.39824 20.4257L2.66469 21.3838H3.50848L2.82748 21.9726L3.08659 22.9306L2.39824 22.3418L1.71732 22.9305L1.97635 21.9638L1.28809 21.375H2.14664L2.39824 20.4257ZM7.20172 20.4257L7.46074 21.3838H8.31188L7.62353 21.9726L7.89006 22.9306L7.20164 22.3418L6.51338 22.9305L6.77982 21.9638L6.09148 21.375H6.93527L7.20172 20.4257ZM11.9978 20.4257L12.2642 21.3838H13.1006L12.4344 21.9726L12.6935 22.9306L12.0051 22.3418L11.3242 22.9305L11.5833 21.9638L10.895 21.375H11.7461L11.9978 20.4257ZM16.8012 20.4257L17.0602 21.3838H17.9114L17.2231 21.9726L17.4895 22.9306L16.8012 22.3418L16.1129 22.9305L16.3793 21.9638L15.691 21.375H16.5348L16.8012 20.4257ZM21.5973 20.4257L21.8637 21.3838H22.7075L22.0265 21.9726L22.2856 22.9306L21.5972 22.3418L20.9163 22.9305L21.1754 21.9638L20.4945 21.375H21.3382L21.5973 20.4257ZM26.4007 20.4257L26.6597 21.3838H27.5109L26.8226 21.9726L27.089 22.9306L26.4007 22.3418L25.7124 22.9305L25.9788 21.9638L25.2905 21.375H26.1417L26.4007 20.4257Z" fill="white"/>
</svg>
